<svg xmlns="http://www.w3.org/2000/svg" viewBox="0 0 762 762" fill="none" shape-rendering="auto"><metadata xmlns:rdf="http://www.w3.org/1999/02/22-rdf-syntax-ns#" xmlns:xsi="http://www.w3.org/2001/XMLSchema-instance" xmlns:dc="http://purl.org/dc/elements/1.1/" xmlns:dcterms="http://purl.org/dc/terms/"><rdf:RDF><rdf:Description><dc:title>Adventurer</dc:title><dc:creator>Lisa Wischofsky</dc:creator><dc:source xsi:type="dcterms:URI">https://www.figma.com/community/file/1184595184137881796</dc:source><dcterms:license xsi:type="dcterms:URI">https://creativecommons.org/licenses/by/4.0/</dcterms:license><dc:rights>Remix of „Adventurer” (https://www.figma.com/community/file/1184595184137881796) by „Lisa Wischofsky”, licensed under „CC BY 4.0” (https://creativecommons.org/licenses/by/4.0/)</dc:rights></rdf:Description></rdf:RDF></metadata><mask id="viewboxMask"><rect width="762" height="762" rx="0" ry="0" x="0" y="0" fill="#fff" /></mask><g mask="url(#viewboxMask)"><rect fill="#f0ebe4" width="762" height="762" x="0" y="0" /><path d="M396 164.8a224.8 224.8 0 0 1 104.8 42.4c6.2 4.9 12.5 9.4 18 15a225.4 225.4 0 0 1 71.8 149 58.5 58.5 0 0 1 50.9 42.2 71 71 0 0 1-27.6 76.5c-11 7.7-24.5 12-38 11.7-5 0-10-1.6-15-1.8-1.9 2.2-3.3 4.9-4.8 7.3A223.3 223.3 0 0 1 389 609.8c-11 .7-21.9 2-33 .7a223.7 223.7 0 0 1-178.8-342.3A223.4 223.4 0 0 1 352 163.5c14.6-1.4 29.4-.3 44 1.3Z" fill="#000"/><path fill-rule="evenodd" clip-rule="evenodd" d="M498.8 213.2A216 216 0 0 0 363 169c-13-.2-26.2 1.6-39 4a218 218 0 0 0-113.6 365.5 218.5 218.5 0 0 0 260.4 40.2c35-18.8 64.2-47.3 84.4-81.5l-3-1.6c-2.8-1.4-5.7-3-8-5-2.2-2-.3-5.8 2.7-4.7 1.5.7 3 1.6 4.4 2.4a55 55 0 0 0 59.6-3.6 64.5 64.5 0 0 0 25-69.8 53.1 53.1 0 0 0-24-31 52.6 52.6 0 0 0-47-2.8c-1.6.8-3.4 1.5-5 1.3-2.5-.2-2.8-4.2-.6-5.2 8-4 16.5-5.6 25.4-6.4a217 217 0 0 0-72-146.4c-4.4-4-8.7-8.1-13.9-11.3Zm107.6 196.2c2-1.2 1.3-5.1-1.4-5-2 0-4.2.8-6.2 1.6l-1.4.4a95.1 95.1 0 0 0-25.5 12.4c-2.2 2-2.2 4.4.1 6.2a92 92 0 0 0 5.2 2.8 36 36 0 0 1 13 9.2c-.2 1.9-2 3.4-3.4 4.5l-.2.2c-3.9 3-8.8 5-13.6 7-2.5 1-4.9 2-7.1 3.1-1.7.8-2.6 2.2-1.6 3.9 1 2 3.2 1.1 5 .5l.6-.2 5.4-2.3c5.4-2.3 11-4.5 15.4-8 2.7-2.1 5.1-5.1 5.4-8.7-.5-3.4-2.7-5.7-5.3-7.8a83 83 0 0 0-11.6-7.2l-1.1-.6c5.4-3 10.8-5.6 16.6-7.7l5-1.7a52 52 0 0 0 6.7-2.6Z" fill="#f2d3b1"/><g transform="translate(-161 -83)"><path d="M589.3 432.7a64.4 64.4 0 0 1 28.5 33.5 64.3 64.3 0 0 1 .5 45.1c-1 2.9-2.9 5.2-6.3 4.8-15-.8-30 .1-45 .5-10 1.1-20 2.2-30 3.8-10.5 1.8-20.6 4.1-31 6.1-4.3-.1-5.3-4.2-7.2-7.3A65.5 65.5 0 0 1 546 425c14.8-2.6 30.5.2 43.4 7.7Z" fill="#000"/><path d="M558 429.9a59.1 59.1 0 0 1 54.4 80.6l-3.2-.3a27 27 0 0 0 1.3-15.4 26.6 26.6 0 1 0-50 16.9 287 287 0 0 0-34 5.2c-6.7 1.2-13.4 3.2-20.1 4A59.8 59.8 0 0 1 517 445a59 59 0 0 1 41-15.1Z" fill="#fff"/><path d="M392 447a54.8 54.8 0 0 1 42.8 81.9c-1.1 1.9-2.9 4-5 4.7-3 .8-6.6-.2-9.6-.9-8.7-2-17.4-3.8-26.3-5.1-12.9-.9-26-1-39 0-4.7.4-9.7 1.4-14.5 1-2.3-1-3.7-4.2-4.6-6.4a54.9 54.9 0 0 1 56.2-75Z" fill="#000"/><path d="M401.5 454.7a49.3 49.3 0 0 1 26.7 74l-4.1-.7c4.1-4.4 7-9.8 6.8-16a22.6 22.6 0 0 0-43.7-8.8c-2.5 5.9-1.9 12 .4 18-7.6.2-15-.4-22.6.3-7.3.7-14.7 1.2-22 1.8l-1.9-3.4a49.2 49.2 0 0 1 60.4-65.2Z" fill="#fff"/></g><g transform="translate(-161 -83)"><path d="M452 395.9c.7 4.6-1.5 9.3-4.2 13a43.8 43.8 0 0 1-12.8 11c-7.7 4.4-16 7.8-24.2 10.9a423.5 423.5 0 0 1-73.5 19.5c-3.4.5-7 1.5-10.4 1-2-.8-2-2.7-1.1-4.4 2.3-1.8 5.5-2.8 8.2-4 36-14.6 71.9-29.4 107.8-44.1 3.3-1.3 6.6-3.4 10.2-3ZM479 396l148 22.8c2.6.4 5.3.5 7.8 1.4 2.4 1.1 1.7 5-1 5.2-9.6 1-19.1 1.8-28.8 2-15.4 0-30.6.3-46-1.2-20.9-1.6-42.2-4.6-62.2-11-7-2.5-15-5.5-20.3-10.7-1.8-2-4-4.3-3.2-7.1 1.2-2.2 3.6-1.6 5.7-1.4Z" fill="#000"/></g><g transform="translate(-161 -83)"><path d="M477 628.9a37.2 37.2 0 0 1 27.4 11.6c5 5.1 8.4 11.4 11 18 .4 3.5 2.2 6.5-1.4 8.8-8.4.2-16.7.8-25 1-12.3 1-24.7.5-37 2-1.9-2-2.3-3.8-2.5-6.4-1-8.6 1.2-17.9 6.7-24.7A28 28 0 0 1 477 629Z" fill="#000"/><path d="M484.5 635.5c12.6 3 22 14 25.5 26.2-18.3.4-36.6 1.7-54.8 2.2a28 28 0 0 1 7.6-23.1c5.8-5.7 14-7 21.7-5.3Z" fill="#8F2E45"/></g><g transform="translate(-161 -83)"></g><g transform="translate(-161 -83)"><path d="M569 416.3c10.7-.3 21.4 0 32-.2 14-.7 28-.4 42-.6 3.9.2 9-.1 12.2 2.4 2.4 1.6 2.2 5.5 2.4 8-.1 4.4-.3 9.5-2.4 13.4-5 2-11.4 1.2-16.8 1.9.4 12.3 1.7 24.6 1.3 36.8-.7 14-3.7 28-10.3 40.4-8.1 13-20 24.3-33.6 31.5a77 77 0 0 1-33.3 7.7c-6.3.2-12.1.5-18.3-.8-9.4-2-18.8-4.4-27-10A81.6 81.6 0 0 1 492 516a193.1 193.1 0 0 1-13.3-43.9c-.5-2.3-2.4-3.5-4.3-4.4-6.7-3-15-.6-18.8 5.6-.8 2.4-1 5-1.2 7.6-.6 7.6-2.2 15.3-3.9 22.8-3.1 13.6-9 26.3-16.8 37.8a50.8 50.8 0 0 1-16.2 14.8 75.6 75.6 0 0 1-34.4 10.3c-7.2-.2-14.2-.4-21.1-2.5-5.5-1.3-10.5-4.8-15.2-8a57.7 57.7 0 0 1-15.3-16.7c-5.3-8.3-9.3-17.3-12.2-26.7a97.5 97.5 0 0 1-5.2-28.7c-4.6.7-9.4 2.2-14 2-4.4-.9-5.3-7.6-5.5-11.1.1-2.4-.1-6.8 2.7-7.7 21.6-9.8 44.4-17 67.5-22.4 17-3.7 34.8-8.3 52.3-6.7 11.2 1 22.8 4 31.7 11 3.2 2.5 5.5 7 9.4 7.7 7 1.8 14.5-1.3 20.9-4 3.6-10 10-17.3 19-22.8a89.3 89.3 0 0 1 20.8-8.3c16.7-4 33.1-4.6 50.2-5.5Z" fill="#000"/><path d="M307.1 478.2c1.2-1.2 3.4 0 2.4 1.6-1.2 1.2-3.4 0-2.4-1.6Z" fill="#000"/><ellipse cx="605" cy="457.5" rx="14" ry="10.5" fill="#fff"/><ellipse cx="411" cy="476.1" rx="11" ry="8.1" fill="#fff"/></g><g transform="translate(-161 -83)"><path d="M468.5 215.1c7 1.1 13.9 1 20.8 2.5 12 2.4 24 5.8 36 8.9 32.6 8.8 65.4 16.6 98.7 22.4 21.5 3.8 44 6.9 64.6 14.5 11.4 4 22.3 9.1 32.6 15.3 4.8 3.7 8.7 9 12.1 14a255.4 255.4 0 0 1 31.3 68.7 497.2 497.2 0 0 1 16 64.6c2.2 7.6.6 16.3-.6 24-3.4 19-10 37-18.7 54.3a307 307 0 0 1-38.5 56.5A187.8 187.8 0 0 1 691 591a129.6 129.6 0 0 1-31.3 17.7c-1.7.4-3 1.4-4.3-.3-1.3-1-.3-3.6 0-5 3.4-11.4 5.8-23 7.3-34.7 1.2-8.9 1.2-17.9 1.7-26.8-.2-10-.6-20-2-30a195.8 195.8 0 0 0-36.4-91.2c-2.1 30.3.4 61.3 8.5 90.6.9 3.4 2.4 6.4 3.7 9.6.4 3.3-2.2 4.6-5 3.5a276.5 276.5 0 0 1-139.1-109.7 162 162 0 0 0-16 26.4 190.4 190.4 0 0 0-16.5 96c-1 1.1-2 3.5-3.8 3.6-2 .3-3-1.4-4-2.7-5.6-7.5-11-15.1-15.8-23.2a332.2 332.2 0 0 1-28.5-65.4c-7.1-23.2-13-47.3-15.1-71.6a287.3 287.3 0 0 0-51.6 88.8 169 169 0 0 0-10.6 49.3c0 3.2-3.7 3.1-5.4 1a135.3 135.3 0 0 1-25-36c-12.9-27-17.6-57.3-15-87l-11.6 8.3a134.4 134.4 0 0 0-27.4 28.6c-1.4 1.8-2.2 3.7-4.8 3.3-2.8-1-1.1-4.1-1-6.2 3.1-12.7 8.4-25 14.4-36.5a287 287 0 0 1 59.7-75.3c29-26.3 63.2-48.6 100.5-61.2 4.6-9 9.8-18.2 16-26.2a37.8 37.8 0 0 1 16.6-12.6c6.3-2.1 12.7-2.1 19.2-1Z" fill="#000"/><g fill="#85c2c6"><path d="M471.5 221c16.5 1.2 33.3 6.2 49.4 10.4 28 7.5 56 14.5 84.6 20 26.7 5.5 54 8 79.4 16.8 10.2 3.5 20.6 7.4 29.8 13 7 4.4 11.2 10.8 15.7 17.4 9.5 15 17.2 31.1 23.2 47.9a565.8 565.8 0 0 1 21.5 79.3c1.5 7.8.6 15.2-.8 23-2.2 12-5.6 23.8-10.3 35.2-9 23-22.5 44-37.7 63.3a270 270 0 0 1-25.6 28.4 155.5 155.5 0 0 1-38.7 26.5 228 228 0 0 0 5.6-95.3 195.3 195.3 0 0 0-41.9-95.7c-1.5-1.9-3.9-1.3-4.9.7-2.9 35.8-1 71.2 10.1 105.6a270.4 270.4 0 0 1-130.5-103.9c-18.7-29-31-61.9-33.9-96.4-.2-2.6-2.4-3.7-4.7-2.6-1.4 1.7-1 3.5-1 5.5 3.2 31.6 13.9 61.9 30 89.2-5 7.2-10 14.4-14.2 22.3a185 185 0 0 0-20.3 68.4c-1.3 10.4-.9 20.6-.5 31a221.1 221.1 0 0 1-24.4-41.5c-14-30-23.5-62-29-94.6a307 307 0 0 1-3.8-41.9 229 229 0 0 1 6.4-51 218 218 0 0 1 23.5-56.5c5-8.1 11-17.9 19.5-22.5 7-4.2 15.8-3 23.5-2Z"/><path d="M413 262.6a216.8 216.8 0 0 0-20.2 90.4c0 5.7.6 11.4.7 17.1a295.5 295.5 0 0 0-47 72.4c-7.5 16.5-13.8 34-17.4 51.7-1 4.7-1.4 9.5-2.3 14.2-25.3-29.1-36.7-69.2-34.6-107.4 0-4.8 1.4-8.7-.2-13-1.4-1.4-3.6-.9-5.1 0-4 2-7.7 5-11.4 7.5-9 6-16.2 13.1-23.7 20.8a174 174 0 0 1 13-27.7c19.6-34.5 48-64.4 79.6-88.2a275.5 275.5 0 0 1 68.6-37.8Z"/></g></g><g transform="translate(-161 -83)"></g></g></svg>