<svg xmlns="http://www.w3.org/2000/svg" viewBox="0 0 762 762" fill="none" shape-rendering="auto"><metadata xmlns:rdf="http://www.w3.org/1999/02/22-rdf-syntax-ns#" xmlns:xsi="http://www.w3.org/2001/XMLSchema-instance" xmlns:dc="http://purl.org/dc/elements/1.1/" xmlns:dcterms="http://purl.org/dc/terms/"><rdf:RDF><rdf:Description><dc:title>Adventurer</dc:title><dc:creator>Lisa Wischofsky</dc:creator><dc:source xsi:type="dcterms:URI">https://www.figma.com/community/file/1184595184137881796</dc:source><dcterms:license xsi:type="dcterms:URI">https://creativecommons.org/licenses/by/4.0/</dcterms:license><dc:rights>Remix of „Adventurer” (https://www.figma.com/community/file/1184595184137881796) by „Lisa Wischofsky”, licensed under „CC BY 4.0” (https://creativecommons.org/licenses/by/4.0/)</dc:rights></rdf:Description></rdf:RDF></metadata><mask id="viewboxMask"><rect width="762" height="762" rx="0" ry="0" x="0" y="0" fill="#fff" /></mask><g mask="url(#viewboxMask)"><rect fill="#f0ebe4" width="762" height="762" x="0" y="0" /><path d="M396 164.8a224.8 224.8 0 0 1 104.8 42.4c6.2 4.9 12.5 9.4 18 15a225.4 225.4 0 0 1 71.8 149 58.5 58.5 0 0 1 50.9 42.2 71 71 0 0 1-27.6 76.5c-11 7.7-24.5 12-38 11.7-5 0-10-1.6-15-1.8-1.9 2.2-3.3 4.9-4.8 7.3A223.3 223.3 0 0 1 389 609.8c-11 .7-21.9 2-33 .7a223.7 223.7 0 0 1-178.8-342.3A223.4 223.4 0 0 1 352 163.5c14.6-1.4 29.4-.3 44 1.3Z" fill="#000"/><path fill-rule="evenodd" clip-rule="evenodd" d="M498.8 213.2A216 216 0 0 0 363 169c-13-.2-26.2 1.6-39 4a218 218 0 0 0-113.6 365.5 218.5 218.5 0 0 0 260.4 40.2c35-18.8 64.2-47.3 84.4-81.5l-3-1.6c-2.8-1.4-5.7-3-8-5-2.2-2-.3-5.8 2.7-4.7 1.5.7 3 1.6 4.4 2.4a55 55 0 0 0 59.6-3.6 64.5 64.5 0 0 0 25-69.8 53.1 53.1 0 0 0-24-31 52.6 52.6 0 0 0-47-2.8c-1.6.8-3.4 1.5-5 1.3-2.5-.2-2.8-4.2-.6-5.2 8-4 16.5-5.6 25.4-6.4a217 217 0 0 0-72-146.4c-4.4-4-8.7-8.1-13.9-11.3Zm107.6 196.2c2-1.2 1.3-5.1-1.4-5-2 0-4.2.8-6.2 1.6l-1.4.4a95.1 95.1 0 0 0-25.5 12.4c-2.2 2-2.2 4.4.1 6.2a92 92 0 0 0 5.2 2.8 36 36 0 0 1 13 9.2c-.2 1.9-2 3.4-3.4 4.5l-.2.2c-3.9 3-8.8 5-13.6 7-2.5 1-4.9 2-7.1 3.1-1.7.8-2.6 2.2-1.6 3.9 1 2 3.2 1.1 5 .5l.6-.2 5.4-2.3c5.4-2.3 11-4.5 15.4-8 2.7-2.1 5.1-5.1 5.4-8.7-.5-3.4-2.7-5.7-5.3-7.8a83 83 0 0 0-11.6-7.2l-1.1-.6c5.4-3 10.8-5.6 16.6-7.7l5-1.7a52 52 0 0 0 6.7-2.6Z" fill="#f2d3b1"/><g transform="translate(-161 -83)"><path d="M562 467.8c1.7 0 3.2.3 4.9.6-.3 2.3.3 4.3-2.6 4.8l-28.3 2c-4.3.2-8.8 1.2-13 .9-2-.8-2.7-2-2.1-4.1 1.4-1.4 3.2-1.6 5-1.7 12-.7 24-1.9 36.1-2.5ZM396.3 481.3c1.3 1.2 2.2 2 2.1 3.9-1.4 2.5-5 2-7.4 2.3-8 .2-16 1.7-24 1.7-2.8-.3-2.2-2.5-2.6-4.6 10.3-2.6 21.4-1.7 32-3.3ZM618.9 483l3.1 2.3a65.6 65.6 0 0 1-34.2 61.5 65.4 65.4 0 0 1-96-53c2.1-3.2 5.8-3 9.2-3.2l92-6.2c8.7-.2 17.2-1.6 25.9-1.3Z" fill="#000"/><path d="M616.3 488.6a59.2 59.2 0 0 1-68.3 59.6 59.7 59.7 0 0 1-35.3-18.9 57.9 57.9 0 0 1-14.8-32.5c11.2-1.2 22.4-1.7 33.6-2.6a73 73 0 0 0 5.2 25c2 4.3 5.3 10 10.2 11.1 4.8.9 8-2.5 10-6.4 4.6-9.3 4-21.5 3.2-31.6 18.7-1.2 37.5-2.6 56.2-3.7Z" fill="#fff"/><path d="M415 499.7c8.1-.7 16.1-1.4 24.3-1l2.6 2.4a55.1 55.1 0 0 1-109.6 6.8c1-.9 2.1-2.7 3.6-2.8 13-1.6 26-1.7 39.1-3 13.4-.6 26.7-1.7 40-2.4Z" fill="#000"/><path d="M436.4 504.3a49.5 49.5 0 0 1-49.4 46.9 50 50 0 0 1-48.6-40.8c11.3-1 22.7-1.7 34-2.3 0 7.2 1 14.4 4.9 20.6 1.7 2.6 4.3 5.2 7.7 5 3.5-.1 6-3.3 7.5-6.3a42 42 0 0 0 2.2-20.7c13.9-.8 27.8-2.2 41.7-2.4Z" fill="#fff"/></g><g transform="translate(-161 -83)"><path d="M531 353.9c17 2 34 7.4 48.6 16.5a57 57 0 0 1 18.3 16.9c.9 1.2 1.2 3.5-.2 4.3-1.2 1.2-2.9.5-4.2 0a143 143 0 0 0-54-15c-13.4-.9-28.2-1-41 3.8-3 1-5.6 3-8.5 3.8-1.4.3-2.5-1-3-2.2a18 18 0 0 1 .3-14.8 23 23 0 0 1 13.3-10.7A72.5 72.5 0 0 1 531 354ZM414 408c8.2 2.4 14.6 10.9 13.6 19.5-1.9.6-3.6 1-5.6.7a108 108 0 0 0-42.8 5.9c-14 4.7-28.5 11.6-39.4 21.8-1.4 1.3-4.3 3-5.6.7-1.7-2.3 0-4 1.4-6a128 128 0 0 1 49-39c8.8-3.6 20-6.5 29.4-3.5Z" fill="#000"/></g><g transform="translate(-161 -83)"><path d="M496 576.3c3-.1 6.1-.1 9.2.3l1.2 2.4-1.2 2.5c-7.7.8-15.5 0-23.2.6l-84 .6c-1.7 0-4.6-.6-4.4-2.7-.5-1.7 1.8-3.3 3.3-3.2l99-.5Z" fill="#000"/></g><g transform="translate(-161 -83)"></g><g transform="translate(-161 -83)"></g><g transform="translate(-161 -83)"><path d="M559 229c42.7 5.5 86.5 17 124.8 37.2 25.9 13.7 50.7 32.2 67 56.9 4.1 5.7 6 12 8.6 18.4 4.8 12 7.7 24 11 36.5 8 31 18 61.6 29 91.6 12.8 35 27.1 69.2 43.5 102.5 1.4 2.9 3 5.6 4.6 8.4.8 1.3 1 2.7 0 4a64 64 0 0 1-16 13 226 226 0 0 1-39.7 19.1A423.3 423.3 0 0 1 679 642.4c-3.9.3-7 1.3-10.6-1 .4-2.5.4-4.6 2.5-6.4 5.5-5 11-10.2 16.2-15.8a402.6 402.6 0 0 1-64.6 27.4c-2.9.8-6.5 2.3-9.5 1.6-1.9-.9-2.1-2.8-1.4-4.6 8.7-19.2 12.2-41.7 15-62.5a579 579 0 0 0 4.4-70c.1-18.2 0-36.5-1.8-54.6-37.5-3.9-74.6-15-108.8-30.9-24.2-11.4-48-25.9-68-43.9a157.3 157.3 0 0 1-23.4-26c-1.2 9.4-1 18.9-.9 28.4 0 3.6.3 7.1 1.3 10.6.3 1.7 1.2 3.3 0 4.8-1.1 1.7-3.7 1.1-5.4.6a57.4 57.4 0 0 1-30.4-25.6 73.7 73.7 0 0 1-10.1-40.4A181.7 181.7 0 0 0 351 366a269 269 0 0 0-32.6 48.4 36.7 36.7 0 0 0-3.4 8.5 218.3 218.3 0 0 0 92.4 228.6c1.2.8 2.4 1.6 3.5 2.6.7 1.7 1 3-.4 4.5-2.4 1.4-5.3 2-8 3-22 6.8-44 13.4-65.7 21.3-21.9 8-43.2 17.6-65.2 25.5-1.4-1-2.4-2-3.3-3.4 3.6-7.7 9.3-14 12.5-22.1 9.8-24.3 10-51.2 9.3-77 0-14.7-1.2-29.3-1.9-44-1.4-21.7-2.6-43.3-3.3-65-.6-27.3-2.1-55.7-.1-83 1.4-22 5.4-44.2 13-65a61 61 0 0 1 13.4-21.7c4.9-5 9.8-10.2 15.2-14.8 5.3-4.5 11-8.3 16.4-12.6 15.9-12.5 31-25.7 47-38a225.5 225.5 0 0 1 51-31 60.4 60.4 0 0 1 21.1-4.6 496 496 0 0 1 97 2.7Z" fill="#000"/><path d="M512 231.2c48 1.5 97.4 9.8 142.2 27.7a248 248 0 0 1 57.3 31.5 148 148 0 0 1 35.3 36.9c2.9 4.4 5 9.2 6.6 14.2 2.5 7.9 6 15.3 7.7 23.5 8.5 35 19.4 69.3 31.6 103.2 13.4 36.6 28.2 72.8 45.6 107.6 1 2.2 2.2 4.3 3.6 6.4a96.3 96.3 0 0 1-21.5 15.2 332 332 0 0 1-68.7 26.1c-24.3 6.7-49 11.4-74.2 13.2 8-7.1 15.4-14.7 22.2-23 1.4-1.7 2.9-3.1 4.8-4.2 6.2-3.7 12.3-7.6 18.1-11.8 1.4-1 2.2-2.4 3-3.8-1-1.2-1.7-2.4-3.6-2.4-3 1.3-5.5 3.5-8.2 5.3a387.7 387.7 0 0 1-94.8 44.6c5.5-14.5 8.8-30.1 11.3-45.4 4-24.8 5.8-49.8 6.5-75 .5-33.6-.5-66.7-6-100-.2-1.6-.8-3.6-2.8-3.4-3-.2-3.1 2.4-2.8 4.6 1.6 9.4 2.8 19 3.6 28.4-34.3-4-67.8-13.4-99.3-27.3-21.3-9.5-42-21.1-60.5-35.3-11.5-8.9-22.5-19.1-31.3-30.6-2.4-3.2-4.2-6.3-7.2-8.9-1.3-1.4-2.8-1-4.5-.7-2 2-2.3 4.5-2.6 7.2a157 157 0 0 0-.2 38.4c-7.3-2.8-13.8-8-18.8-13.8A66.9 66.9 0 0 1 398 304c1.1-1.9 1.4-4.3-.9-5.4-2.3-.3-2.9.7-4 2.4a68.5 68.5 0 0 0-9.3 26.7c-12.5 7.4-23 18.7-32.7 29.4a337.3 337.3 0 0 0-25.4 33.5 200.6 200.6 0 0 0-23.4 47.6 99.9 99.9 0 0 0-4 17.9c0 2.9 2.9 4.1 5 2.2.7-1.6 1-3.3 1.5-5a223.8 223.8 0 0 0 98 202.2c-25.3 8-51.7 15.7-76.8 25.4-16.3 6.2-32.2 13.3-48.5 19.8 4.8-7.1 9-14.5 11.4-22.7 8.2-25.3 7.6-51.8 7.1-78-.8-11.4-.8-22.7-1.7-34-.8-10.3-1-20.7-2-31-.6-13-1-26-1.7-39-.7-23.3-.6-46.7-.5-70 .5-22.2 3.5-44.4 9.6-65.8 1.7-5.8 4.4-11.1 7-16.6 4-8.4 10.3-13.8 16.7-20.2 5.8-6 12.4-11 19.1-15.9 27.3-20.9 53.8-46.3 83.8-63.2a99.5 99.5 0 0 1 22.7-10c7.3-2.1 14.4-2.3 22-2.7 13.6-.8 27.4-.5 41-.4Z" fill="#ab2a18"/></g><g transform="translate(-161 -83)"></g></g></svg>